<svg xmlns="http://www.w3.org/2000/svg" viewBox="0 0 291.06 129.69"><defs><style>.cls-1{fill:#2f3e58;}.cls-2{fill:#e84e1b;}.cls-3{fill:#fff;}</style></defs><title>primary logo</title><g id="Layer_2" data-name="Layer 2"><g id="Layer_1-2" data-name="Layer 1"><path class="cls-1" d="M210.26,108.44l-1.07,2.8H206L212,96.84h3.18l5.85,14.4h-3.3l-1.08-2.8Zm3.19-8.21-2.17,5.6h4.32Z"/><path class="cls-1" d="M227.45,99.53v3.54h6.18v2.71h-6.18v5.46h-3.09V96.84h9.84l0,2.69Z"/><path class="cls-1" d="M244.19,107.12H241v4.12H238V96.84h6c3.58,0,5.61,1.81,5.61,5a4.78,4.78,0,0,1-2.56,4.64l2.91,4.76h-3.5Zm-.29-2.71c1.7,0,2.68-.83,2.68-2.47s-1-2.41-2.68-2.41H241v4.88Z"/><path class="cls-1" d="M254.06,111.24V96.84h3.1v14.4Z"/><path class="cls-1" d="M273.86,99.12l-1.8,2.3a4.88,4.88,0,0,0-3.56-1.87,4.44,4.44,0,0,0,0,8.87,5.18,5.18,0,0,0,3.56-1.69l1.82,2.08a7.86,7.86,0,0,1-5.54,2.57,7.33,7.33,0,0,1,.12-14.65A7.61,7.61,0,0,1,273.86,99.12Z"/><path class="cls-1" d="M280.23,108.44l-1.08,2.8H276l6-14.4h3.19l5.85,14.4h-3.31l-1.07-2.8Zm3.19-8.21-2.17,5.6h4.32Z"/><path class="cls-2" d="M111.44,74.66a10.56,10.56,0,0,0,5.39,1.27,11.87,11.87,0,0,0,4.49-.79A10.88,10.88,0,0,0,125,72.63l3.62,4.12a65.21,65.21,0,0,0,1.06-10.25l-21.42,4.36A7.39,7.39,0,0,0,111.44,74.66Z"/><path class="cls-2" d="M16.77,75.74a7.69,7.69,0,0,0,5.91-2.57A9.81,9.81,0,0,0,25,66.3a9.81,9.81,0,0,0-2.35-6.87,7.69,7.69,0,0,0-5.91-2.57,7.74,7.74,0,0,0-6,2.57A9.76,9.76,0,0,0,8.46,66.3a9.76,9.76,0,0,0,2.35,6.87A7.74,7.74,0,0,0,16.77,75.74Z"/><path class="cls-2" d="M58.94,56.86A7.63,7.63,0,0,0,53,59.43a9.84,9.84,0,0,0-2.32,6.87A9.84,9.84,0,0,0,53,73.17a8.13,8.13,0,0,0,11.86,0,9.84,9.84,0,0,0,2.32-6.87,9.84,9.84,0,0,0-2.32-6.87A7.63,7.63,0,0,0,58.94,56.86Z"/><path class="cls-2" d="M106.89,81.6a16.05,16.05,0,0,1-6.51-6.24A17.93,17.93,0,0,1,98.1,66.3a18.2,18.2,0,0,1,2.25-9A16.27,16.27,0,0,1,106.56,51a18.49,18.49,0,0,1,17.32-.19,15.21,15.21,0,0,1,5.1,4.51A64.84,64.84,0,0,0,.3,58.71a16.51,16.51,0,0,1,.75-1.66,15.07,15.07,0,0,1,5.82-6.14,16.11,16.11,0,0,1,8.28-2.16q6.2,0,9.7,4.12V49.26h9.39V83.34h-9V79.41q-3.49,4.44-10.12,4.44a16.11,16.11,0,0,1-8.28-2.16,15.07,15.07,0,0,1-5.82-6.14C1,75.38.89,75.21.8,75a64.85,64.85,0,0,0,127,5.39c-2.87,2.27-6.6,3.42-11.2,3.42A20.27,20.27,0,0,1,106.89,81.6ZM74.6,75.52a15.29,15.29,0,0,1-5.81,6.14,15.85,15.85,0,0,1-8.22,2.19q-6.69,0-10.18-4.44v3.93h-9v-47h9.4V52.87a12.23,12.23,0,0,1,9.76-4.12,15.85,15.85,0,0,1,8.22,2.19,15.29,15.29,0,0,1,5.81,6.14,19.27,19.27,0,0,1,2.11,9.22A19.27,19.27,0,0,1,74.6,75.52Zm18.5,8.33q-5.49,0-8.56-3.08c-2.05-2-3.07-5-3.07-8.71V36.34h9.4V71.49a4.82,4.82,0,0,0,1,3.33,3.81,3.81,0,0,0,3,1.17,5.89,5.89,0,0,0,1.48-.19,4.16,4.16,0,0,0,1.17-.44L98,83A14.67,14.67,0,0,1,93.1,83.85Z"/><path class="cls-2" d="M120.38,57.81a7.85,7.85,0,0,0-4.94-1.58,7.53,7.53,0,0,0-5.78,2.4,9.91,9.91,0,0,0-2.35,6.66l15.79-3.23A7.51,7.51,0,0,0,120.38,57.81Z"/><path class="cls-3" d="M6.87,81.69a16.11,16.11,0,0,0,8.28,2.16q6.61,0,10.12-4.44v3.93h9V49.26H24.85v3.61q-3.5-4.11-9.7-4.12a16.11,16.11,0,0,0-8.28,2.16,15.07,15.07,0,0,0-5.82,6.14A16.51,16.51,0,0,0,.3,58.71c-.19,2-.3,4.06-.3,6.13A65.91,65.91,0,0,0,.8,75c.09.17.16.34.25.51A15.07,15.07,0,0,0,6.87,81.69Zm3.94-22.26a7.74,7.74,0,0,1,6-2.57,7.69,7.69,0,0,1,5.91,2.57A9.81,9.81,0,0,1,25,66.3a9.81,9.81,0,0,1-2.35,6.87,7.69,7.69,0,0,1-5.91,2.57,7.74,7.74,0,0,1-6-2.57A9.76,9.76,0,0,1,8.46,66.3,9.76,9.76,0,0,1,10.81,59.43Z"/><path class="cls-3" d="M68.79,50.94a15.85,15.85,0,0,0-8.22-2.19,12.23,12.23,0,0,0-9.76,4.12V36.34h-9.4v47h9V79.41q3.49,4.44,10.18,4.44a15.85,15.85,0,0,0,8.22-2.19,15.29,15.29,0,0,0,5.81-6.14,19.27,19.27,0,0,0,2.11-9.22,19.27,19.27,0,0,0-2.11-9.22A15.29,15.29,0,0,0,68.79,50.94ZM64.87,73.17a8.13,8.13,0,0,1-11.86,0,9.84,9.84,0,0,1-2.32-6.87A9.84,9.84,0,0,1,53,59.43a8.13,8.13,0,0,1,11.86,0,9.84,9.84,0,0,1,2.32,6.87A9.84,9.84,0,0,1,64.87,73.17Z"/><path class="cls-3" d="M96.38,75.8A5.89,5.89,0,0,1,94.9,76a3.81,3.81,0,0,1-3-1.17,4.82,4.82,0,0,1-1-3.33V36.34h-9.4V72.06c0,3.76,1,6.67,3.07,8.71s4.9,3.08,8.56,3.08A14.67,14.67,0,0,0,98,83l-.43-7.66A4.16,4.16,0,0,1,96.38,75.8Z"/><path class="cls-3" d="M125,72.63a10.88,10.88,0,0,1-3.64,2.51,11.87,11.87,0,0,1-4.49.79,10.56,10.56,0,0,1-5.39-1.27,7.39,7.39,0,0,1-3.22-3.8l21.42-4.36c0-.55.05-1.1.05-1.66a65,65,0,0,0-.71-9.52,15.21,15.21,0,0,0-5.1-4.51,18.49,18.49,0,0,0-17.32.19,16.27,16.27,0,0,0-6.21,6.27,18.2,18.2,0,0,0-2.25,9,17.93,17.93,0,0,0,2.28,9.06,16.05,16.05,0,0,0,6.51,6.24,20.27,20.27,0,0,0,9.7,2.25c4.6,0,8.33-1.15,11.2-3.42.3-1.21.56-2.44.79-3.68Zm-15.3-14a7.53,7.53,0,0,1,5.78-2.4,7.85,7.85,0,0,1,4.94,1.58,7.51,7.51,0,0,1,2.72,4.25l-15.79,3.23A9.91,9.91,0,0,1,109.66,58.63Z"/><path class="cls-1" d="M154.77,81.6a16.28,16.28,0,0,1-6.45-6.24,18.85,18.85,0,0,1,0-18.12A16.28,16.28,0,0,1,154.77,51a19.1,19.1,0,0,1,9.3-2.25A17.34,17.34,0,0,1,173,51a13.13,13.13,0,0,1,5.57,6.43l-7.29,4.12q-2.53-4.69-7.29-4.69a8,8,0,0,0-6.08,2.53,9.61,9.61,0,0,0-2.41,6.91,9.57,9.57,0,0,0,2.41,6.9A8,8,0,0,0,164,75.74q4.81,0,7.29-4.69l7.29,4.18A13.42,13.42,0,0,1,173,81.57a17.17,17.17,0,0,1-9,2.28A19.1,19.1,0,0,1,154.77,81.6Z"/><path class="cls-1" d="M211.69,52.55q3.7,3.81,3.71,11.28V83.34H206v-18q0-4-1.69-6a6,6,0,0,0-4.88-2,7.28,7.28,0,0,0-5.66,2.32q-2.11,2.31-2.11,6.87V83.34h-9.4v-47h9.4V52.81a12.37,12.37,0,0,1,4.52-3,15.55,15.55,0,0,1,5.78-1A13,13,0,0,1,211.69,52.55Z"/><path class="cls-1" d="M222.86,42.92a5.56,5.56,0,0,1,0-7.85,5.78,5.78,0,0,1,4.22-1.58A5.91,5.91,0,0,1,231.3,35a5,5,0,0,1,1.62,3.8,5.52,5.52,0,0,1-1.62,4.08,5.73,5.73,0,0,1-4.22,1.62A5.79,5.79,0,0,1,222.86,42.92Zm-.48,6.34h9.4V83.34h-9.4Z"/><path class="cls-1" d="M242.08,80.77c-2.05-2-3.07-5-3.07-8.71V36.34h9.4V71.49a4.82,4.82,0,0,0,1.05,3.33,3.81,3.81,0,0,0,3,1.17,5.89,5.89,0,0,0,1.48-.19,4.5,4.5,0,0,0,1.17-.44l.42,7.66a14.59,14.59,0,0,1-4.88.83Q245.15,83.85,242.08,80.77Z"/><path class="cls-1" d="M291.06,36.34v47h-9V79.41q-3.49,4.44-10.12,4.44a16.14,16.14,0,0,1-8.28-2.16,15.07,15.07,0,0,1-5.82-6.14,19.57,19.57,0,0,1-2.1-9.25,19.57,19.57,0,0,1,2.1-9.25,15.07,15.07,0,0,1,5.82-6.14A16.14,16.14,0,0,1,272,48.75q6.21,0,9.7,4.12V36.34ZM279.49,73.17a9.76,9.76,0,0,0,2.35-6.87,9.76,9.76,0,0,0-2.35-6.87,7.67,7.67,0,0,0-5.9-2.57,7.76,7.76,0,0,0-6,2.57,9.81,9.81,0,0,0-2.35,6.87,9.81,9.81,0,0,0,2.35,6.87,7.76,7.76,0,0,0,6,2.57A7.67,7.67,0,0,0,279.49,73.17Z"/></g></g></svg>