<svg xmlns="http://www.w3.org/2000/svg" xmlns:xlink="http://www.w3.org/1999/xlink" viewBox="0 0 96.61 96.89"><defs><style>.cls-1,.cls-4{fill:none;}.cls-2{clip-path:url(#clip-path);}.cls-3{fill:#fff;}.cls-4{stroke:#000;stroke-linecap:round;stroke-miterlimit:10;stroke-width:1.16px;}</style><clipPath id="clip-path"><circle class="cls-1" cx="47.37" cy="47.34" r="32.9"/></clipPath></defs><title>Circle Stripe Left</title><g id="Layer_2" data-name="Layer 2"><g id="Layer_1-2" data-name="Layer 1"><g class="cls-2"><line class="cls-3" x1="45.69" y1="0.58" x2="96.02" y2="50.91"/><line class="cls-4" x1="45.69" y1="0.58" x2="96.02" y2="50.91"/><line class="cls-3" x1="43.54" y1="2.74" x2="93.87" y2="53.07"/><line class="cls-4" x1="43.54" y1="2.74" x2="93.87" y2="53.07"/><line class="cls-3" x1="41.4" y1="4.91" x2="91.73" y2="55.24"/><line class="cls-4" x1="41.4" y1="4.91" x2="91.73" y2="55.24"/><line class="cls-3" x1="39.25" y1="7.07" x2="89.58" y2="57.4"/><line class="cls-4" x1="39.25" y1="7.07" x2="89.58" y2="57.4"/><line class="cls-3" x1="37.1" y1="9.23" x2="87.43" y2="59.56"/><line class="cls-4" x1="37.1" y1="9.23" x2="87.43" y2="59.56"/><line class="cls-3" x1="34.95" y1="11.39" x2="85.28" y2="61.72"/><line class="cls-4" x1="34.95" y1="11.39" x2="85.28" y2="61.72"/><line class="cls-3" x1="32.8" y1="13.55" x2="83.13" y2="63.88"/><line class="cls-4" x1="32.8" y1="13.55" x2="83.13" y2="63.88"/><line class="cls-3" x1="30.66" y1="15.71" x2="80.99" y2="66.04"/><line class="cls-4" x1="30.66" y1="15.71" x2="80.99" y2="66.04"/><line class="cls-3" x1="28.51" y1="17.87" x2="78.84" y2="68.2"/><line class="cls-4" x1="28.51" y1="17.87" x2="78.84" y2="68.2"/><line class="cls-3" x1="26.36" y1="20.04" x2="76.69" y2="70.37"/><line class="cls-4" x1="26.36" y1="20.04" x2="76.69" y2="70.37"/><line class="cls-3" x1="24.21" y1="22.2" x2="74.54" y2="72.53"/><line class="cls-4" x1="24.21" y1="22.2" x2="74.54" y2="72.53"/><line class="cls-3" x1="22.06" y1="24.36" x2="72.39" y2="74.69"/><line class="cls-4" x1="22.06" y1="24.36" x2="72.39" y2="74.69"/><line class="cls-3" x1="19.92" y1="26.52" x2="70.25" y2="76.85"/><line class="cls-4" x1="19.92" y1="26.52" x2="70.25" y2="76.85"/><line class="cls-3" x1="17.77" y1="28.68" x2="68.1" y2="79.01"/><line class="cls-4" x1="17.77" y1="28.68" x2="68.1" y2="79.01"/><line class="cls-3" x1="15.62" y1="30.84" x2="65.95" y2="81.17"/><line class="cls-4" x1="15.62" y1="30.84" x2="65.95" y2="81.17"/><line class="cls-3" x1="13.47" y1="33" x2="63.8" y2="83.33"/><line class="cls-4" x1="13.47" y1="33" x2="63.8" y2="83.33"/><line class="cls-3" x1="11.32" y1="35.17" x2="61.65" y2="85.5"/><line class="cls-4" x1="11.32" y1="35.17" x2="61.65" y2="85.5"/><line class="cls-3" x1="9.17" y1="37.33" x2="59.5" y2="87.66"/><line class="cls-4" x1="9.17" y1="37.33" x2="59.5" y2="87.66"/><line class="cls-3" x1="7.03" y1="39.49" x2="57.36" y2="89.82"/><line class="cls-4" x1="7.03" y1="39.49" x2="57.36" y2="89.82"/><line class="cls-3" x1="4.88" y1="41.65" x2="55.21" y2="91.98"/><line class="cls-4" x1="4.88" y1="41.65" x2="55.21" y2="91.98"/><line class="cls-3" x1="2.73" y1="43.81" x2="53.06" y2="94.14"/><line class="cls-4" x1="2.73" y1="43.81" x2="53.06" y2="94.14"/><line class="cls-3" x1="0.58" y1="45.97" x2="50.91" y2="96.3"/><line class="cls-4" x1="0.58" y1="45.97" x2="50.91" y2="96.3"/></g></g></g></svg>