<svg xmlns="http://www.w3.org/2000/svg" viewBox="0 0 96.61 96.89">
  <defs>
    <style>
      .cls-4{fill:none}.cls-3{fill:#fff}.cls-4{stroke:#000;stroke-linecap:round;stroke-miterlimit:10;stroke-width:1.16px}
    </style>
    <clipPath id="clip-path">
      <path d="M16.33 47.34a32.9 32.9 0 1 0 32.9-32.9 32.9 32.9 0 0 0-32.9 32.9" fill="none"/>
    </clipPath>
  </defs>
  <g id="Layer_2" data-name="Layer 2">
    <g clip-path="url(#clip-path)" id="Layer_1-2" data-name="Layer 1">
      <path class="cls-3" d="M50.91.58L.58 50.91"/>
      <path class="cls-4" d="M50.91.58L.58 50.91"/>
      <path class="cls-3" d="M53.06 2.74L2.73 53.07"/>
      <path class="cls-4" d="M53.06 2.74L2.73 53.07"/>
      <path class="cls-3" d="M55.21 4.91L4.88 55.24"/>
      <path class="cls-4" d="M55.21 4.91L4.88 55.24"/>
      <path class="cls-3" d="M57.36 7.07L7.03 57.4"/>
      <path class="cls-4" d="M57.36 7.07L7.03 57.4"/>
      <path class="cls-3" d="M59.51 9.23L9.17 59.56"/>
      <path class="cls-4" d="M59.51 9.23L9.17 59.56"/>
      <path class="cls-3" d="M61.65 11.39L11.32 61.72"/>
      <path class="cls-4" d="M61.65 11.39L11.32 61.72"/>
      <path class="cls-3" d="M63.8 13.55L13.47 63.88"/>
      <path class="cls-4" d="M63.8 13.55L13.47 63.88"/>
      <path class="cls-3" d="M65.95 15.71L15.62 66.04"/>
      <path class="cls-4" d="M65.95 15.71L15.62 66.04"/>
      <path class="cls-3" d="M68.1 17.87L17.77 68.2"/>
      <path class="cls-4" d="M68.1 17.87L17.77 68.2"/>
      <path class="cls-3" d="M70.25 20.04L19.92 70.37"/>
      <path class="cls-4" d="M70.25 20.04L19.92 70.37"/>
      <path class="cls-3" d="M72.39 22.2L22.06 72.53"/>
      <path class="cls-4" d="M72.39 22.2L22.06 72.53"/>
      <path class="cls-3" d="M74.54 24.36L24.21 74.69"/>
      <path class="cls-4" d="M74.54 24.36L24.21 74.69"/>
      <path class="cls-3" d="M76.69 26.52L26.36 76.85"/>
      <path class="cls-4" d="M76.69 26.52L26.36 76.85"/>
      <path class="cls-3" d="M78.84 28.68L28.51 79.01"/>
      <path class="cls-4" d="M78.84 28.68L28.51 79.01"/>
      <path class="cls-3" d="M80.99 30.84L30.66 81.17"/>
      <path class="cls-4" d="M80.99 30.84L30.66 81.17"/>
      <path class="cls-3" d="M83.13 33L32.8 83.33"/>
      <path class="cls-4" d="M83.13 33L32.8 83.33"/>
      <path class="cls-3" d="M85.28 35.17L34.95 85.5"/>
      <path class="cls-4" d="M85.28 35.17L34.95 85.5"/>
      <path class="cls-3" d="M87.43 37.33L37.1 87.66"/>
      <path class="cls-4" d="M87.43 37.33L37.1 87.66"/>
      <path class="cls-3" d="M89.58 39.49L39.25 89.82"/>
      <path class="cls-4" d="M89.58 39.49L39.25 89.82"/>
      <path class="cls-3" d="M91.73 41.65L41.4 91.98"/>
      <path class="cls-4" d="M91.73 41.65L41.4 91.98"/>
      <path class="cls-3" d="M93.88 43.81L43.55 94.14"/>
      <path class="cls-4" d="M93.88 43.81L43.55 94.14"/>
      <path class="cls-3" d="M96.02 45.97L45.69 96.3"/>
      <path class="cls-4" d="M96.02 45.97L45.69 96.3"/>
    </g>
  </g>
</svg>
