<svg xmlns="http://www.w3.org/2000/svg" viewBox="0 0 113.41 113.78">
  <defs>
    <style>
      .cls-4,.cls-5{fill:none}.cls-2{clip-path:url(#clip-path)}.cls-3{fill:#fff}.cls-4,.cls-5{stroke:#e8326e;stroke-linecap:round;stroke-miterlimit:10;stroke-width:1.35px}.cls-5{stroke:#000}
    </style>
    <clipPath id="clip-path">
      <path transform="rotate(-45 57.917 53.83)" fill="none" d="M34.93 30.85h45.98v45.98H34.93z"/>
    </clipPath>
  </defs>
  <g id="Layer_2" data-name="Layer 2">
    <g id="Layer_1-2" data-name="Layer 1">
      <g class="cls-2">
        <path class="cls-3" d="M67.59.67L.67 67.59"/>
        <path class="cls-4" d="M67.59.67L.67 67.59"/>
        <path class="cls-3" d="M69.74 2.84L2.82 69.76"/>
        <path class="cls-4" d="M69.74 2.84L2.82 69.76"/>
        <path class="cls-3" d="M71.89 5.01L4.97 71.93"/>
        <path class="cls-4" d="M71.89 5.01L4.97 71.93"/>
      </g>
      <path class="cls-3" d="M26.39 54.82l32.52-32.51z"/>
      <g class="cls-2">
        <path class="cls-5" d="M74.04 7.18L7.12 74.09"/>
      </g>
      <path class="cls-3" d="M28.55 57l32.51-32.53z"/>
      <g class="cls-2">
        <path class="cls-5" d="M76.19 9.34L9.27 76.26"/>
      </g>
      <path class="cls-3" d="M30.71 59.14l32.51-32.51z"/>
      <g class="cls-2">
        <path class="cls-5" d="M78.34 11.51L11.42 78.43"/>
      </g>
      <path class="cls-3" d="M32.87 61.3l32.51-32.51z"/>
      <g class="cls-2">
        <path class="cls-5" d="M80.49 13.68L13.57 80.6"/>
      </g>
      <path class="cls-3" d="M35 63.46l32.54-32.52z"/>
      <g class="cls-2">
        <path class="cls-5" d="M82.64 15.85L15.72 82.76"/>
      </g>
      <path class="cls-3" d="M37.19 65.62L69.7 33.1z"/>
      <g class="cls-2">
        <path class="cls-5" d="M84.79 18.01L17.87 84.93"/>
      </g>
      <path class="cls-3" d="M39.35 67.77l32.51-32.51z"/>
      <g class="cls-2">
        <path class="cls-5" d="M86.94 20.18L20.02 87.1"/>
      </g>
      <path class="cls-3" d="M41.5 69.93L74 37.42z"/>
      <g class="cls-2">
        <path class="cls-5" d="M89.09 22.35L22.17 89.27"/>
      </g>
      <path class="cls-3" d="M43.66 72.09l32.52-32.51z"/>
      <g class="cls-2">
        <path class="cls-5" d="M91.24 24.52L24.32 91.43"/>
      </g>
      <path class="cls-3" d="M45.82 74.25l32.51-32.51z"/>
      <g class="cls-2">
        <path class="cls-5" d="M93.39 26.68L26.47 93.6"/>
      </g>
      <path class="cls-3" d="M48 76.41L80.49 43.9z"/>
      <g class="cls-2">
        <path class="cls-5" d="M95.54 28.85L28.62 95.77"/>
      </g>
      <path class="cls-3" d="M50.14 78.57l32.51-32.52z"/>
      <g class="cls-2">
        <path class="cls-5" d="M97.69 31.02L30.77 97.94"/>
      </g>
      <path class="cls-3" d="M52.3 80.73l32.51-32.52z"/>
      <g class="cls-2">
        <path class="cls-5" d="M99.84 33.19L32.92 100.1"/>
      </g>
      <path class="cls-3" d="M54.46 82.88L87 50.37z"/>
      <g class="cls-2">
        <path class="cls-5" d="M101.99 35.35l-66.92 66.92"/>
      </g>
      <path class="cls-3" d="M56.62 85l32.51-32.47z"/>
      <g class="cls-2">
        <path class="cls-5" d="M104.14 37.52l-66.92 66.92"/>
        <path class="cls-3" d="M106.29 39.69l-66.92 66.92"/>
        <path class="cls-4" d="M106.29 39.69l-66.92 66.92"/>
        <path class="cls-3" d="M108.44 41.86l-66.92 66.91"/>
        <path class="cls-4" d="M108.44 41.86l-66.92 66.91"/>
        <path class="cls-3" d="M110.59 44.02l-66.92 66.92"/>
        <path class="cls-4" d="M110.59 44.02l-66.92 66.92"/>
        <path class="cls-3" d="M112.74 46.19l-66.92 66.92"/>
        <path class="cls-4" d="M112.74 46.19l-66.92 66.92"/>
      </g>
    </g>
  </g>
</svg>
