<svg xmlns="http://www.w3.org/2000/svg" viewBox="0 0 121.29 121.69">
  <defs>
    <style>
      .cls-4{fill:none}.cls-2{fill:#fff}.cls-3{clip-path:url(#clip-path)}.cls-4{stroke:#000;stroke-linecap:round;stroke-miterlimit:10;stroke-width:1.44px}
    </style>
    <clipPath id="clip-path">
      <path fill="none" d="M39.46 32.99h49.17v49.17H39.46z"/>
    </clipPath>
  </defs>
  <g id="Layer_2" data-name="Layer 2">
    <g id="Layer_1-2" data-name="Layer 1">
      <path class="cls-2" d="M39.46 33.55L40 33z"/>
      <g class="cls-3">
        <path class="cls-4" d="M72.29.72L.72 72.29"/>
      </g>
      <path class="cls-2" d="M44.64 33l-5.18 5.18z"/>
      <g class="cls-3">
        <path class="cls-4" d="M74.59 3.04L3.02 74.61"/>
      </g>
      <path class="cls-2" d="M49.25 33l-9.79 9.8z"/>
      <g class="cls-3">
        <path class="cls-4" d="M76.89 5.36L5.32 76.93"/>
      </g>
      <path class="cls-2" d="M53.87 33L39.46 47.4z"/>
      <g class="cls-3">
        <path class="cls-4" d="M79.19 7.67L7.62 79.25"/>
      </g>
      <path class="cls-2" d="M58.49 33l-19 19z"/>
      <g class="cls-3">
        <path class="cls-4" d="M81.49 9.99L9.92 81.56"/>
      </g>
      <path class="cls-2" d="M63.11 33L39.46 56.64z"/>
      <g class="cls-3">
        <path class="cls-4" d="M83.79 12.31L12.22 83.88"/>
      </g>
      <path class="cls-2" d="M67.72 33L39.46 61.26z"/>
      <g class="cls-3">
        <path class="cls-4" d="M86.09 14.63L14.51 86.2"/>
      </g>
      <path class="cls-2" d="M72.34 33L39.46 65.87z"/>
      <g class="cls-3">
        <path class="cls-4" d="M88.39 16.95L16.81 88.52"/>
      </g>
      <path class="cls-2" d="M77 33L39.5 70.5z"/>
      <g class="cls-3">
        <path class="cls-4" d="M90.68 19.27L19.11 90.84"/>
      </g>
      <path class="cls-2" d="M81.58 33L39.46 75.11z"/>
      <g class="cls-3">
        <path class="cls-4" d="M92.98 21.58L21.41 93.16"/>
      </g>
      <path class="cls-2" d="M86.19 33L39.46 79.73z"/>
      <g class="cls-3">
        <path class="cls-4" d="M95.28 23.9L23.71 95.47"/>
      </g>
      <path class="cls-2" d="M41.64 82.17l47-47z"/>
      <g class="cls-3">
        <path class="cls-4" d="M97.58 26.22L26.01 97.79"/>
      </g>
      <path class="cls-2" d="M46.25 82.17l42.38-42.38z"/>
      <g class="cls-3">
        <path class="cls-4" d="M99.88 28.54l-71.57 71.57"/>
      </g>
      <path class="cls-2" d="M50.87 82.17L88.63 44.4z"/>
      <g class="cls-3">
        <path class="cls-4" d="M102.18 30.86l-71.57 71.57"/>
      </g>
      <path class="cls-2" d="M55.49 82.17L88.63 49z"/>
      <g class="cls-3">
        <path class="cls-4" d="M104.48 33.17l-71.57 71.58"/>
      </g>
      <path class="cls-2" d="M60.11 82.17l28.52-28.53z"/>
      <g class="cls-3">
        <path class="cls-4" d="M106.78 35.49l-71.57 71.57"/>
      </g>
      <path class="cls-2" d="M64.72 82.17l23.91-23.91z"/>
      <g class="cls-3">
        <path class="cls-4" d="M109.08 37.81l-71.57 71.57"/>
      </g>
      <path class="cls-2" d="M69.34 82.17l19.29-19.3z"/>
      <g class="cls-3">
        <path class="cls-4" d="M111.38 40.13L39.81 111.7"/>
      </g>
      <path class="cls-2" d="M74 82.17l14.63-14.68z"/>
      <g class="cls-3">
        <path class="cls-4" d="M113.68 42.45l-71.57 71.57"/>
      </g>
      <path class="cls-2" d="M78.58 82.17l10-10.06z"/>
      <g class="cls-3">
        <path class="cls-4" d="M115.98 44.77L44.4 116.34"/>
      </g>
      <path class="cls-2" d="M83.19 82.17l5.44-5.44z"/>
      <g class="cls-3">
        <path class="cls-4" d="M118.27 47.08L46.7 118.66"/>
      </g>
      <path class="cls-2" d="M87.81 82.17l.82-.83z"/>
      <g class="cls-3">
        <path class="cls-4" d="M120.57 49.4L49 120.97"/>
      </g>
    </g>
  </g>
</svg>
